<svg version="1.0" xmlns="http://www.w3.org/2000/svg"
 width="2327.000000pt" height="3736.000000pt" viewBox="0 0 2327.000000 3736.000000"
 preserveAspectRatio="xMidYMid meet">

<g transform="translate(0.000000,3736.000000) scale(0.100000,-0.100000)"
fill="none" stroke="none" classname='svg-container'>
<path d="M3550 31248 c0 -18 -2 -501 -4 -1073 -10 -2070 -6 -22356 3 -22374 6
-10 16 -23 24 -29 18 -15 7699 -18 7787 -3 30 5 211 12 402 16 267 4 357 9
389 20 23 8 65 15 93 15 28 1 80 7 116 15 36 8 90 14 120 15 30 0 96 6 145 14
50 8 146 17 215 20 71 4 170 17 230 30 136 31 329 63 455 75 63 7 132 22 189
41 52 18 134 36 200 45 124 15 213 34 297 63 31 11 114 30 185 42 79 14 155
33 197 52 37 16 107 36 155 44 48 9 133 33 189 54 57 21 138 46 180 56 43 9
103 29 135 45 31 16 103 40 159 54 57 14 125 36 150 50 26 13 88 36 139 50 50
14 110 37 132 51 22 14 76 36 120 49 43 13 96 34 116 48 20 14 69 35 107 47
39 11 87 32 107 45 21 14 68 36 104 50 37 14 91 39 120 55 29 17 85 42 125 55
39 14 86 35 103 48 17 14 60 39 96 57 36 18 76 40 90 50 14 10 52 29 86 42 33
14 84 41 112 61 29 20 63 39 75 43 12 3 43 22 68 40 26 19 71 45 101 58 30 13
67 35 84 48 16 14 61 44 99 67 39 23 86 53 105 66 116 79 207 144 239 171 20
17 61 47 91 68 30 20 89 61 130 91 41 30 100 71 130 91 66 45 131 97 177 143
18 18 59 53 91 77 106 82 146 116 283 241 75 68 150 134 166 146 49 37 336
329 375 382 20 28 64 77 98 110 34 33 79 86 101 117 21 31 45 61 53 65 7 4 41
42 75 83 103 126 164 200 202 244 20 22 52 66 73 96 20 30 52 74 69 97 18 23
57 76 87 119 30 42 67 91 81 108 15 17 37 51 49 76 13 25 37 63 55 85 17 22
44 63 60 90 15 28 35 59 45 70 9 11 31 45 47 75 48 89 95 167 139 233 22 34
52 88 67 120 15 32 38 72 51 88 13 16 34 54 45 85 12 31 35 76 52 100 17 24
39 69 49 99 10 30 33 75 50 100 17 25 40 70 50 100 10 30 33 75 50 101 18 25
42 78 54 117 13 40 37 94 54 121 18 28 32 56 32 63 0 24 38 122 58 150 11 16
30 62 42 103 13 41 38 104 56 140 18 36 40 94 49 130 9 36 32 101 51 144 19
43 43 115 54 160 10 45 33 113 50 151 17 38 40 106 50 150 10 44 31 107 45
140 15 33 38 112 50 175 13 64 37 150 54 191 17 44 40 137 55 220 14 79 36
174 50 210 14 37 36 135 50 219 14 83 34 181 45 218 28 96 39 162 51 292 6 63
21 160 34 215 38 159 54 260 66 410 10 128 18 194 49 400 6 39 15 106 21 150
13 88 29 344 35 555 2 74 8 162 14 195 6 33 11 154 11 270 0 170 3 217 16 252
13 34 22 43 40 43 l24 0 0 610 0 610 -24 0 c-18 0 -27 9 -40 43 -13 35 -16 82
-16 252 0 116 -5 237 -11 270 -6 33 -12 121 -14 195 -8 282 -34 604 -55 685
-15 56 -27 152 -45 360 -9 99 -22 212 -31 250 -8 39 -14 81 -14 95 0 14 -11
70 -25 125 -14 55 -30 152 -35 215 -6 66 -23 160 -40 220 -39 139 -48 185 -66
309 -8 57 -30 149 -49 205 -19 56 -41 148 -50 204 -9 63 -27 132 -45 174 -17
39 -39 118 -51 177 -11 58 -38 149 -58 201 -21 52 -44 124 -50 160 -7 36 -28
98 -47 138 -19 40 -43 113 -53 161 -11 49 -33 113 -50 142 -16 30 -37 83 -46
118 -9 35 -31 94 -50 131 -18 36 -41 93 -50 126 -10 32 -30 79 -45 104 -15 25
-37 75 -49 112 -12 37 -34 88 -51 114 -16 26 -39 77 -51 113 -12 36 -37 91
-55 121 -18 30 -40 75 -49 100 -9 24 -29 65 -46 91 -16 26 -40 74 -53 107 -13
33 -38 78 -55 99 -16 21 -37 56 -45 79 -8 22 -35 71 -60 108 -25 37 -46 73
-46 80 0 7 -14 33 -32 57 -18 24 -48 73 -68 109 -55 97 -120 202 -140 225 -9
11 -30 43 -46 70 -15 28 -44 71 -64 97 -55 73 -91 125 -140 198 -44 66 -117
163 -202 267 -24 29 -80 99 -126 155 -45 57 -104 128 -131 158 -27 30 -73 82
-102 115 -99 113 -687 690 -804 790 -65 55 -136 116 -159 136 -22 20 -63 51
-91 69 -59 40 -110 79 -174 135 -44 39 -108 84 -210 150 -44 28 -71 48 -191
140 -25 19 -67 46 -95 61 -27 14 -73 44 -101 65 -28 22 -56 39 -62 39 -6 0
-40 20 -76 44 -35 25 -84 55 -108 67 -24 12 -57 32 -74 45 -16 13 -56 35 -88
49 -32 14 -72 36 -90 49 -17 13 -59 38 -94 55 -35 17 -77 40 -93 52 -16 11
-57 31 -90 45 -34 13 -82 37 -108 53 -26 17 -67 37 -91 46 -25 9 -74 33 -110
54 -36 21 -87 44 -115 50 -27 7 -72 28 -100 46 -27 19 -77 41 -109 51 -33 9
-100 36 -150 60 -49 24 -100 44 -112 44 -12 0 -53 16 -90 35 -37 20 -106 47
-153 62 -47 14 -108 36 -136 50 -27 13 -90 35 -140 49 -49 14 -119 39 -155 56
-36 16 -99 36 -140 43 -80 14 -95 19 -180 58 -31 14 -97 33 -147 42 -51 8
-136 31 -190 51 -54 20 -141 42 -194 49 -53 8 -150 32 -215 54 -66 21 -150 42
-189 46 -64 5 -155 25 -320 70 -33 8 -147 27 -253 41 -109 14 -214 33 -241 44
-29 11 -110 25 -198 35 -81 8 -188 21 -238 27 -49 6 -121 13 -160 17 -38 3
-76 10 -84 15 -27 17 -208 37 -470 51 -146 8 -289 19 -320 25 -30 5 -104 10
-165 10 -133 0 -196 18 -196 56 l0 24 -3975 0 -3975 0 0 -32z m7084 -4483 c60
-8 134 -12 165 -9 37 4 91 -2 159 -15 57 -12 120 -21 140 -21 20 0 73 -7 117
-15 44 -8 167 -22 273 -30 166 -13 205 -19 280 -45 60 -21 129 -35 222 -46
101 -12 164 -25 250 -54 63 -22 153 -44 200 -51 56 -7 110 -23 159 -45 41 -19
114 -43 162 -55 49 -11 110 -32 136 -45 27 -13 85 -35 129 -48 45 -13 99 -35
120 -49 22 -13 73 -37 114 -51 41 -15 91 -38 110 -51 20 -14 65 -36 100 -51
36 -14 77 -35 91 -45 15 -10 56 -32 91 -47 34 -16 77 -40 93 -54 17 -14 57
-40 90 -57 33 -17 78 -45 100 -62 22 -17 94 -66 160 -110 142 -95 175 -120
320 -241 140 -118 409 -382 483 -473 31 -38 74 -90 97 -115 22 -25 56 -67 75
-94 19 -26 54 -73 77 -104 104 -140 243 -351 291 -442 16 -30 45 -78 65 -107
19 -29 41 -69 48 -90 7 -21 27 -59 45 -85 18 -26 40 -71 49 -100 10 -29 30
-73 45 -98 15 -25 38 -76 50 -115 13 -38 36 -92 51 -120 15 -27 40 -88 55
-135 14 -47 37 -106 50 -133 14 -26 34 -86 45 -135 11 -48 36 -121 54 -162 19
-41 41 -115 50 -165 9 -49 30 -125 46 -167 16 -43 38 -134 49 -205 11 -70 31
-159 45 -198 34 -100 44 -148 55 -287 6 -68 20 -150 30 -183 32 -95 58 -284
70 -490 6 -104 18 -224 26 -265 7 -42 14 -105 14 -141 0 -36 9 -110 21 -165
17 -79 20 -121 16 -209 -3 -67 0 -151 9 -215 17 -133 20 -1187 3 -1271 -6 -30
-12 -139 -14 -244 -2 -133 -7 -208 -18 -250 -9 -33 -16 -90 -17 -126 0 -37 -7
-100 -15 -140 -8 -41 -19 -157 -24 -259 -12 -224 -24 -316 -57 -438 -14 -51
-32 -152 -40 -225 -7 -73 -25 -175 -39 -227 -44 -168 -54 -214 -70 -323 -9
-71 -25 -131 -44 -175 -16 -37 -40 -121 -54 -187 -13 -67 -38 -150 -55 -187
-16 -36 -38 -103 -47 -149 -9 -46 -29 -107 -45 -135 -15 -27 -38 -84 -50 -125
-12 -41 -32 -92 -45 -114 -12 -22 -34 -71 -48 -110 -28 -77 -106 -249 -138
-305 -11 -19 -33 -64 -49 -100 -17 -36 -38 -78 -47 -95 -9 -16 -37 -68 -63
-115 -46 -85 -54 -98 -133 -219 -23 -35 -55 -85 -71 -110 -15 -25 -41 -61 -57
-79 -16 -18 -36 -47 -45 -64 -29 -55 -239 -328 -253 -328 -5 0 -28 -26 -52
-57 -60 -82 -373 -396 -436 -440 -29 -20 -53 -40 -53 -44 0 -5 -39 -39 -87
-76 -47 -37 -103 -82 -123 -100 -20 -18 -88 -66 -151 -107 -63 -41 -131 -88
-153 -103 -21 -15 -67 -44 -102 -64 -35 -20 -75 -46 -90 -58 -15 -12 -46 -30
-68 -40 -23 -10 -69 -36 -104 -59 -35 -22 -80 -46 -100 -53 -20 -6 -67 -29
-104 -51 -37 -22 -93 -46 -125 -55 -32 -8 -78 -27 -103 -41 -61 -36 -88 -48
-134 -56 -22 -4 -71 -23 -109 -42 -38 -20 -115 -46 -170 -60 -56 -14 -106 -29
-112 -34 -25 -20 -121 -50 -207 -64 -51 -9 -142 -31 -201 -51 -62 -20 -156
-42 -220 -51 -62 -8 -150 -26 -197 -38 -149 -41 -165 -44 -490 -70 -70 -5
-208 -26 -281 -42 -37 -8 -111 -14 -165 -14 -54 0 -146 -7 -204 -15 -88 -13
-205 -15 -700 -13 -553 3 -597 4 -628 21 -19 11 -40 33 -48 53 -12 29 -14
1007 -12 7193 l3 7160 21 28 c12 15 39 33 60 40 62 18 1245 17 1388 -2z"/>
</g>
</svg>
